<?xml version="1.0" standalone="no"?>
<!DOCTYPE svg PUBLIC "-//W3C//DTD SVG 20010904//EN"
 "http://www.w3.org/TR/2001/REC-SVG-20010904/DTD/svg10.dtd">
<svg version="1.0" xmlns="http://www.w3.org/2000/svg"
 width="326.000000pt" height="62.000000pt" viewBox="0 0 326.000000 62.000000"
 preserveAspectRatio="xMidYMid meet">

<g transform="translate(0.000000,62.000000) scale(0.100000,-0.100000)"
fill="#000000" stroke="none">
<path d="M36 584 c-48 -48 32 -159 198 -275 57 -41 72 -56 76 -82 7 -42 45
-63 77 -42 19 13 29 11 106 -25 47 -22 90 -40 96 -40 6 0 11 -7 11 -15 0 -12
4 -14 17 -6 11 6 26 5 42 -1 39 -14 137 -14 155 1 9 8 15 27 15 45 -2 27 -2
28 -6 6 -3 -14 -10 -31 -15 -37 -17 -21 -156 -14 -143 7 2 4 -12 7 -33 7 -24
-1 -70 14 -129 43 -77 35 -93 47 -93 65 0 33 -24 48 -63 41 -26 -5 -40 -1 -61
15 -14 11 -24 25 -21 30 4 5 0 6 -8 3 -18 -7 -134 90 -169 142 -35 52 -41 76
-24 100 12 16 26 19 78 18 43 -1 55 1 38 6 -46 15 -127 11 -144 -6z"/>
<path d="M240 565 c46 -18 64 -17 25 0 -16 8 -37 14 -45 14 -8 0 1 -7 20 -14z"/>
<path d="M513 444 c-16 -7 -5 -34 12 -28 7 3 16 12 19 20 5 14 -8 17 -31 8z"/>
<path d="M1195 387 c-10 -24 -1 -232 10 -230 6 2 11 29 13 60 4 66 14 83 52
83 41 0 60 -28 60 -88 0 -28 5 -54 10 -57 6 -4 10 18 10 59 0 87 -20 110 -89
104 l-46 -5 3 38 c4 36 -13 63 -23 36z"/>
<path d="M875 350 c3 -5 8 -10 11 -10 2 0 4 5 4 10 0 6 -5 10 -11 10 -5 0 -7
-4 -4 -10z"/>
<path d="M1048 309 c-21 -12 -23 -42 -4 -58 7 -6 31 -17 52 -25 21 -7 39 -19
39 -26 0 -22 -40 -30 -70 -14 -32 16 -44 12 -26 -10 39 -47 145 -14 125 38 -3
8 -28 22 -55 31 -54 18 -69 33 -48 46 19 12 66 11 74 -1 3 -5 13 -10 22 -10
14 0 14 3 -2 20 -20 22 -77 27 -107 9z"/>
<path d="M1442 236 c3 -93 21 -106 26 -19 4 65 14 83 48 83 31 0 44 -27 44
-95 0 -35 4 -54 10 -50 6 3 10 32 10 64 0 61 11 81 45 81 35 0 45 -20 45 -87
0 -35 4 -63 10 -63 6 0 10 29 10 68 0 54 -4 72 -18 85 -21 20 -73 22 -90 5 -8
-8 -15 -8 -25 0 -8 7 -37 11 -66 11 l-52 -2 3 -81z"/>
<path d="M1741 294 c-55 -70 14 -165 96 -133 19 7 29 7 31 0 10 -30 22 -4 22
48 0 80 -24 111 -85 111 -35 0 -48 -5 -64 -26z m119 -26 c13 -25 13 -31 0 -54
-19 -34 -50 -46 -81 -30 -35 17 -46 58 -25 91 24 37 83 33 106 -7z"/>
<path d="M1920 233 c0 -49 4 -83 10 -83 6 0 10 28 10 63 0 67 10 87 45 87 34
0 45 -20 45 -81 0 -32 5 -61 10 -64 6 -4 10 15 10 50 0 68 13 95 44 95 34 0
44 -18 48 -83 4 -77 23 -68 23 11 0 51 -4 66 -19 78 -24 17 -78 18 -94 2 -8
-8 -15 -8 -25 1 -8 6 -35 10 -61 10 l-46 -2 0 -84z"/>
<path d="M2225 303 c-29 -29 -36 -61 -21 -97 17 -42 65 -64 103 -47 17 8 29 8
38 1 17 -14 25 -2 25 40 0 49 -18 98 -40 110 -29 15 -87 12 -105 -7z m97 -20
c22 -20 24 -66 2 -87 -20 -20 -68 -20 -88 0 -9 8 -16 27 -16 41 0 55 62 83
102 46z"/>
<path d="M2392 236 c3 -93 22 -106 26 -19 3 62 18 83 58 83 38 0 54 -26 54
-85 0 -30 5 -57 10 -60 6 -4 10 18 10 59 0 89 -17 106 -100 104 l-61 -2 3 -80z"/>
<path d="M2613 305 c-31 -21 -40 -78 -19 -110 49 -74 156 -44 156 43 0 70 -79
108 -137 67z m99 -22 c10 -9 18 -28 18 -43 0 -60 -83 -86 -116 -35 -39 60 44
127 98 78z"/>
<path d="M2780 316 c0 -9 73 -157 80 -161 6 -4 80 143 80 160 0 3 -4 5 -9 5
-6 0 -22 -27 -37 -60 -15 -33 -29 -60 -33 -60 -3 1 -18 28 -33 60 -15 33 -32
60 -37 60 -6 0 -11 -2 -11 -4z"/>
<path d="M2991 294 c-12 -15 -21 -39 -21 -54 0 -59 72 -106 121 -79 17 9 24 9
27 0 10 -30 22 -5 22 48 0 80 -24 111 -85 111 -35 0 -48 -5 -64 -26z m119 -26
c13 -25 13 -31 0 -54 -19 -34 -50 -46 -81 -30 -35 17 -46 58 -25 91 24 37 83
33 106 -7z"/>
<path d="M814 249 c-16 -17 -47 -44 -68 -60 -21 -16 -34 -29 -27 -29 14 0 26
9 94 73 27 26 46 47 41 47 -6 0 -23 -14 -40 -31z"/>
<path d="M143 232 c-18 -19 -33 -37 -33 -42 0 -4 -7 -13 -15 -20 -9 -7 -13
-15 -11 -18 3 -2 1 -13 -5 -24 -7 -14 -7 -23 2 -34 6 -8 9 -14 5 -14 -12 0 37
-42 53 -45 9 -2 16 -4 16 -5 0 -10 150 -15 205 -7 19 4 46 8 60 10 43 7 159
48 167 59 4 8 0 9 -13 4 -36 -14 -159 -48 -194 -53 -40 -7 -126 -7 -155 -1
-36 7 -95 41 -95 55 0 7 -4 13 -9 13 -13 0 -8 51 8 80 7 14 23 35 34 47 33 37
15 32 -20 -5z"/>
<path d="M1384 179 c-10 -17 13 -36 27 -22 12 12 4 33 -11 33 -5 0 -12 -5 -16
-11z"/>
</g>
</svg>
