<?xml version="1.0" standalone="no"?>
<!DOCTYPE svg PUBLIC "-//W3C//DTD SVG 20010904//EN"
 "http://www.w3.org/TR/2001/REC-SVG-20010904/DTD/svg10.dtd">
<svg version="1.0" xmlns="http://www.w3.org/2000/svg"
 width="256.000000pt" height="256.000000pt" viewBox="0 0 256.000000 256.000000"
 preserveAspectRatio="xMidYMid meet">
<metadata>
Created by potrace 1.11, written by Peter Selinger 2001-2013
</metadata>
<g transform="translate(0.000000,256.000000) scale(0.100000,-0.100000)"
fill="#000000" stroke="none">
<path d="M750 1686 c0 -2 16 -13 34 -24 19 -12 52 -46 72 -77 l38 -57 -16 -56
c-58 -206 -170 -558 -181 -570 -8 -7 -36 -17 -63 -21 -39 -7 -26 -9 66 -8 63
0 101 2 83 4 -50 6 -57 22 -38 90 54 190 149 509 155 516 4 4 21 -27 38 -70
143 -358 176 -427 228 -477 59 -58 80 -61 369 -61 l260 0 60 28 c84 39 118 89
123 177 3 55 0 70 -20 100 -32 47 -90 84 -168 107 l-65 20 50 25 c150 78 179
214 63 300 -55 41 -95 50 -253 54 -111 2 -137 1 -100 -6 79 -14 90 -18 117
-42 45 -40 61 -84 56 -154 -6 -98 -53 -146 -168 -170 -44 -10 -49 -12 -22 -13
167 -4 275 -149 217 -289 -32 -75 -92 -115 -190 -127 l-60 -6 -40 93 c-21 51
-55 131 -76 178 -20 47 -64 153 -98 236 -35 82 -72 168 -84 189 -29 50 -85 94
-133 106 -38 8 -254 13 -254 5z"/>
</g>
</svg>
